# xmcd CD database file
#
# Track frame offsets:
#	150
#	12174
#	24811
#	39162
#	51805
#	63446
#	72958
#	87657
#	99336
#	115245
#	131765
#	146816
#	165502
#	185341
#
# Disc length: 2638 seconds
#
# Revision: 0
# Processed by: cddbd v1.5.2PL0 Copyright (c) Steve Scherf et al.
# Submitted via: CDex 1.50Beta7
#
DISCID=b60a4c0e
DTITLE=TRIO PARADA DURA  - MOSSA ESTRADA CD1
DYEAR=1900
DGENRE=Country
TTITLE0=AS ANDORINHAS
TTITLE1=CASTELO
TTITLE2=BLUSA VERMELHA
TTITLE3=BARCO DE PAPEL
TTITLE4=MATA-ME DE UMA VEZ (ME MATA DE UMA VEZ)
TTITLE5=HOMEM DE PEDRA
TTITLE6=BARRA PESADA
TTITLE7=QUERO FALAR COM ALQUEM
TTITLE8=BIQUINI BORDO
TTITLE9=BORBOLETA COLORIDA
TTITLE10=PEDAÇO DE MIM 
TTITLE11=POT-POURRI: LUZ DA MINHA VIDA /ULTIMO ADEUS
TTITLE12=POT POURRI: BICHO BOM E MULHER/O DOUTOR E A EMPREGADA/SOCA PILAO
TTITLE13=O BEBUM 
EXTD=
EXTT0=
EXTT1=
EXTT2=
EXTT3=
EXTT4=
EXTT5=
EXTT6=
EXTT7=
EXTT8=
EXTT9=
EXTT10=
EXTT11=
EXTT12=
EXTT13=
PLAYORDER=
